<?xml version="1.0" encoding="utf-8"?>
<!-- Generator: Adobe Illustrator 26.1.0, SVG Export Plug-In . SVG Version: 6.00 Build 0)  -->
<svg version="1.1" id="icon_Drinking_Fountain" xmlns="http://www.w3.org/2000/svg" xmlns:xlink="http://www.w3.org/1999/xlink"
	 x="0px" y="0px" viewBox="0 0 13.5 13.5" style="enable-background:new 0 0 13.5 13.5;" xml:space="preserve">
<path d="M9.28,8.44l0.85-1.13V5.07l0,0V2.81c-0.7-0.52-1.5-0.88-2.38-1.03V1.53C8.1,1.46,8.37,1.16,8.37,0.78
	C8.37,0.35,8.02,0,7.59,0H5.9C5.47,0,5.12,0.35,5.12,0.78c0,0.38,0.27,0.68,0.63,0.75v0.25C4.88,1.94,4.06,2.29,3.37,2.81
	c0,0.59,0,4.5,0,4.5l0,0l0,0l0.84,1.13L3.37,9.56v2.81c0.95,0.72,2.1,1.13,3.38,1.13c1.23,0,2.43-0.41,3.38-1.13
	c0-0.56,0-2.81,0-2.81L9.28,8.44z M9.12,5.24c-0.04,0-0.07,0.01-0.11,0.01c-0.85,0-1.64-0.27-2.27-0.75
	C6.12,4.98,5.33,5.25,4.51,5.25c-0.05,0-0.09-0.01-0.14-0.01v-1.9C5.08,2.91,5.9,2.68,6.75,2.68c0.87,0,1.66,0.22,2.38,0.65v1.91
	H9.12z"/>
</svg>
