<?xml version="1.0" encoding="utf-8"?>
<!-- Generator: Adobe Illustrator 26.1.0, SVG Export Plug-In . SVG Version: 6.00 Build 0)  -->
<svg version="1.1" id="icon_Men_x2019_s_Restroom" xmlns="http://www.w3.org/2000/svg" xmlns:xlink="http://www.w3.org/1999/xlink"
	 x="0px" y="0px" viewBox="0 0 15.63 13.5" style="enable-background:new 0 0 15.63 13.5;" xml:space="preserve">
<style type="text/css">.st0{fill:#FFFFFF;}</style>
<g>
	<polygon points="0,13.5 7.81,0 15.63,13.5 	"/>
	<path class="st0" d="M10.43,8.22L9.24,6.33C9.04,6,8.7,5.81,8.33,5.81H7.31C6.93,5.81,6.59,6,6.39,6.32L5.2,8.22
		C5.04,8.47,5.12,8.81,5.37,8.96c0.25,0.16,0.59,0.08,0.74-0.17L6.6,8.01l-0.02,3.73c0,0.3,0.24,0.54,0.54,0.54
		c0.3,0,0.52-0.24,0.52-0.54V9.32h0.27v2.43c0,0.3,0.24,0.54,0.54,0.54s0.54-0.24,0.54-0.54V8.02L9.48,8.8
		c0.14,0.16,0.31,0.25,0.49,0.25c0.1,0,0.2-0.03,0.29-0.08C10.51,8.81,10.59,8.47,10.43,8.22z M7.82,5.27
		c0.45,0,0.81-0.36,0.81-0.81S8.27,3.65,7.82,3.65S7.01,4.02,7.01,4.47C7.01,4.91,7.37,5.27,7.82,5.27z"/>
</g>
</svg>
