<?xml version="1.0" encoding="utf-8"?>
<!-- Generator: Adobe Illustrator 26.1.0, SVG Export Plug-In . SVG Version: 6.00 Build 0)  -->
<svg version="1.1" id="icon_Women_x2019_s_Restroom"
	 xmlns="http://www.w3.org/2000/svg" xmlns:xlink="http://www.w3.org/1999/xlink" x="0px" y="0px" viewBox="0 0 13.5 13.5"
	 style="enable-background:new 0 0 13.5 13.5;" xml:space="preserve">
<style type="text/css">.st0{fill:#FFFFFF;}</style>
<g>
	<circle cx="6.74" cy="6.75" r="6.75"/>
	<path class="st0" d="M6.74,4.05c0.45,0,0.81-0.36,0.81-0.81s-0.36-0.8-0.79-0.8c-0.45,0-0.81,0.36-0.81,0.81S6.3,4.05,6.74,4.05z
		 M9.36,7L8.33,5.35c-0.3-0.47-0.81-0.76-1.37-0.76H6.53c-0.56,0-1.07,0.28-1.37,0.76L4.13,7C3.97,7.26,4.05,7.59,4.3,7.75
		C4.55,7.9,4.89,7.83,5.04,7.57l0.55-0.88L4.84,8.91h0.67v1.62c0,0.3,0.24,0.54,0.54,0.54s0.52-0.24,0.52-0.54V8.91h0.27v1.62
		c0,0.3,0.24,0.54,0.54,0.54s0.54-0.24,0.54-0.54V8.91H8.6L7.86,6.69l0.55,0.88C8.54,7.74,8.72,7.83,8.9,7.83
		c0.1,0,0.2-0.03,0.29-0.08C9.44,7.59,9.51,7.26,9.36,7z"/>
</g>
</svg>
