<?xml version="1.0" encoding="utf-8"?>
<!-- Generator: Adobe Illustrator 26.1.0, SVG Export Plug-In . SVG Version: 6.00 Build 0)  -->
<svg version="1.1" id="icon_Lockers" xmlns="http://www.w3.org/2000/svg" xmlns:xlink="http://www.w3.org/1999/xlink" x="0px"
	 y="0px" viewBox="0 0 13.5 13.5" style="enable-background:new 0 0 13.5 13.5;" xml:space="preserve">
<g>
	<path d="M0,4.64v7.59c0,0.68,0.59,1.27,1.27,1.27h0.42V3.37H1.26C0.59,3.37,0,3.96,0,4.64z"/>
	<path d="M12.23,3.37h-0.42V13.5h0.42c0.67,0,1.27-0.59,1.27-1.27V4.64C13.5,3.96,12.91,3.37,12.23,3.37z"/>
	<path d="M10.13,3.37V2.11c0-0.67-0.59-1.27-1.27-1.27H4.64c-0.68,0-1.27,0.59-1.27,1.27v1.27H2.53V13.5h8.44V3.37H10.13z
		 M8.86,3.37H4.64V2.11h4.22V3.37z M7.01,9.3L6.67,9.62C6.64,9.68,6.58,9.7,6.51,9.7h-0.4v0.4c0,0.13-0.11,0.24-0.24,0.24h-0.4v0.4
		c0,0.13-0.11,0.24-0.24,0.24H4.46c-0.13,0-0.24-0.11-0.24-0.24v-0.8c0-0.06,0.03-0.12,0.07-0.17l1.59-1.6
		C5.83,8.01,5.8,7.83,5.8,7.65c0-0.96,0.78-1.74,1.74-1.74s1.74,0.78,1.74,1.74S8.5,9.39,7.54,9.39C7.36,9.39,7.18,9.36,7.01,9.3z
		 M7.94,7.65c0.22,0,0.4-0.18,0.4-0.4c0-0.22-0.18-0.4-0.4-0.4s-0.4,0.18-0.4,0.4C7.54,7.47,7.72,7.65,7.94,7.65z"/>
</g>
</svg>
