<?xml version="1.0" encoding="UTF-8"?>
<svg id="Layer_1" xmlns="http://www.w3.org/2000/svg" xmlns:xlink="http://www.w3.org/1999/xlink" version="1.1" viewBox="0 0 215.1 43">
  <!-- Generator: Adobe Illustrator 29.6.1, SVG Export Plug-In . SVG Version: 2.1.1 Build 9)  -->
  <defs>
    <style>
      .st0 {
        fill: none;
      }

      .st1 {
        fill: #2075bc;
      }

      .st2 {
        fill: #1185fe;
      }

      .st3 {
        fill: url(#radial-gradient);
      }

      .st4 {
        fill: #187fb8;
      }

      .st5 {
        fill: #fff;
      }

      .st6 {
        fill: #ba2032;
      }

      .st7 {
        clip-path: url(#clippath);
      }
    </style>
    <radialGradient id="radial-gradient" cx="56.2" cy="-460" fx="56.2" fy="-460" r="49.8" gradientTransform="translate(0 -412) scale(1 -1)" gradientUnits="userSpaceOnUse">
      <stop offset="0" stop-color="#ffd676"/>
      <stop offset=".2" stop-color="#f2a454"/>
      <stop offset=".4" stop-color="#f05c3c"/>
      <stop offset=".7" stop-color="#c22f86"/>
      <stop offset="1" stop-color="#6666ad"/>
      <stop offset="1" stop-color="#5c6cb2"/>
      <stop offset="1" stop-color="#5c6cb2"/>
    </radialGradient>
    <clipPath id="clippath">
      <rect class="st0" x="54.8" y="11.6" width="19.6" height="19.6"/>
    </clipPath>
  </defs>
  <g id="instagram">
    <path class="st3" d="M86.1,21.5c0,11.9-9.6,21.5-21.5,21.5s-21.5-9.6-21.5-21.5S52.7,0,64.6,0s21.5,9.6,21.5,21.5"/>
    <g>
      <g class="st7">
        <path class="st5" d="M64.6,13.4c2.6,0,2.9,0,4,.1,1,0,1.5.2,1.8.3.5.2.8.4,1.1.7.3.3.6.7.7,1.1,0,.3.3.9.3,1.8s0,1.3,0,4,0,2.9,0,4c0,1-.2,1.5-.3,1.8-.2.5-.4.8-.7,1.1-.3.3-.7.6-1.1.7-.3.1-.9.3-1.8.3s-1.3.1-4,.1-2.9,0-4-.1c-1,0-1.5-.2-1.8-.3-.5-.2-.8-.4-1.1-.7-.3-.3-.6-.7-.7-1.1,0-.3-.3-.9-.3-1.8s0-1.3,0-4,0-2.9,0-4c0-1,.2-1.5.3-1.8.2-.5.4-.8.7-1.1s.7-.6,1.1-.7c.3-.1.9-.3,1.8-.3,1,0,1.4,0,4,0M64.6,11.6c-2.7,0-3,0-4,.1-1,0-1.8.2-2.4.5-.6.2-1.2.6-1.7,1.1s-.9,1.1-1.1,1.7c-.2.6-.4,1.3-.5,2.4,0,1,0,1.4,0,4s0,3,0,4c0,1,.2,1.8.5,2.4.2.6.6,1.2,1.1,1.7s1.1.9,1.7,1.1,1.3.4,2.4.5c1,0,1.4.1,4,.1s3,0,4-.1c1,0,1.8-.2,2.4-.5.6-.2,1.2-.6,1.7-1.1s.9-1.1,1.1-1.7.4-1.3.5-2.4c0-1,0-1.4,0-4s0-3,0-4c0-1-.2-1.8-.5-2.4-.2-.6-.6-1.2-1.1-1.7s-1.1-.9-1.7-1.1c-.6-.2-1.3-.4-2.4-.5-1-.1-1.4-.1-4-.1Z"/>
      </g>
      <path class="st5" d="M64.6,16.4c-2.8,0-5,2.2-5,5s2.2,5,5,5,5-2.2,5-5-2.3-5-5-5M64.6,24.7c-1.8,0-3.3-1.5-3.3-3.3s1.5-3.3,3.3-3.3,3.3,1.5,3.3,3.3c0,1.8-1.5,3.3-3.3,3.3Z"/>
      <path class="st5" d="M71,16.2c0,.6-.5,1.2-1.2,1.2s-1.2-.5-1.2-1.2.5-1.2,1.2-1.2c.6,0,1.2.5,1.2,1.2"/>
    </g>
  </g>
  <g id="facebook">
    <path class="st1" d="M43.1,21.5c0,11.8-9.6,21.5-21.5,21.5S.1,33.3.1,21.5,9.7,0,21.6,0s21.5,9.6,21.5,21.5"/>
    <path class="st5" d="M18.6,31.9v-9.6h-3.1v-4.1h3.1v-3.1s.2-4.5,4.1-4.5h3.9v3.9h-2.6s-1.4.4-1.4,1.2v2.4h4.1v4.1h-4.3v9.6h-3.8Z"/>
  </g>
  <g id="bluesky">
    <path class="st5" d="M129.1,21.8c0,11.8-9.6,21.5-21.5,21.5s-21.5-9.7-21.5-21.5S95.7.3,107.6.3s21.5,9.6,21.5,21.5h0Z"/>
    <path class="st2" d="M100.8,12.7c2.8,2.1,5.7,6.3,6.8,8.5,1.1-2.2,4-6.4,6.8-8.5,2-1.5,5.2-2.6,5.2,1s-.4,6.2-.7,7c-.9,3.1-4,3.8-6.8,3.4,4.9.8,6.1,3.6,3.4,6.3-5.1,5.2-7.3-1.3-7.8-3-.1-.3-.2-.4-.2-.3,0-.1,0,0-.2.3-.6,1.7-2.8,8.2-7.8,3-2.7-2.7-1.4-5.5,3.4-6.3-2.8.5-5.9-.3-6.8-3.4-.2-.9-.7-6.3-.7-7,0-3.7,3.2-2.5,5.2-1h0Z"/>
  </g>
  <g id="youtube">
    <path class="st6" d="M172.1,21.5c0,11.9-9.6,21.5-21.5,21.5s-21.5-9.6-21.5-21.5S138.7,0,150.6,0s21.5,9.6,21.5,21.5"/>
    <path class="st5" d="M157,14.7h-12.9c-1.8,0-3.3,1.5-3.3,3.3v7.1c0,1.8,1.5,3.3,3.3,3.3h12.9c1.8,0,3.3-1.5,3.3-3.3v-7.1c0-1.8-1.4-3.3-3.3-3.3M148,25.5v-7.8c-.1,0,6.7,3.7,6.7,3.7l-6.7,4.1Z"/>
  </g>
  <g id="linkedin">
    <g id="LinKeDin">
      <circle class="st4" cx="193.7" cy="21.4" r="21.4"/>
      <g id="LinkedIn">
        <rect class="st5" x="184.2" y="18.2" width="4.1" height="12.9"/>
        <path class="st5" d="M199.3,18c-2.3,0-3.8,1.2-4.1,2.1v-2h-4.6c.1,1.1,0,12.9,0,12.9h4.6v-6.9c0-.4,0-.8.1-1.1.3-.8,1-1.6,2.2-1.6s2.3,1.2,2.3,2.9v6.7h4.6v-7.2c0-3.9-2.2-5.8-5.1-5.8Z"/>
        <path class="st5" d="M186.1,12.1c-1.5,0-2.5,1-2.5,2.3s1,2.2,2.4,2.2h.1c1.5,0,2.5-1,2.5-2.3s-.9-2.2-2.5-2.2Z"/>
      </g>
    </g>
  </g>
</svg>