<?xml version="1.0" encoding="utf-8"?>
<!-- Generator: Adobe Illustrator 27.7.0, SVG Export Plug-In . SVG Version: 6.00 Build 0)  -->
<svg version="1.1" id="Layer_1" xmlns="http://www.w3.org/2000/svg" xmlns:xlink="http://www.w3.org/1999/xlink" x="0px" y="0px"
	 viewBox="0 0 215.1 43" style="enable-background:new 0 0 215.1 43;" xml:space="preserve">
<style type="text/css">
	.st0{fill:url(#SVGID_1_);}
	.st1{clip-path:url(#SVGID_00000142175218643793957490000001432254432399297948_);fill:#FFFFFF;}
	.st2{fill:#FFFFFF;}
	.st3{fill:#2075BC;}
	.st4{fill:#231F20;}
	.st5{fill:#BA2032;}
	.st6{fill:#187FB8;}
</style>
<g id="instagram">
	
		<radialGradient id="SVGID_1_" cx="56.2393" cy="503.9629" r="49.7649" gradientTransform="matrix(1 0 0 1 6.250000e-02 -456)" gradientUnits="userSpaceOnUse">
		<stop  offset="0" style="stop-color:#FFD676"/>
		<stop  offset="0.2463" style="stop-color:#F2A454"/>
		<stop  offset="0.3793" style="stop-color:#F05C3C"/>
		<stop  offset="0.6995" style="stop-color:#C22F86"/>
		<stop  offset="0.9568" style="stop-color:#6666AD"/>
		<stop  offset="0.9852" style="stop-color:#5C6CB2"/>
		<stop  offset="1" style="stop-color:#5C6CB2"/>
	</radialGradient>
	<path class="st0" d="M86.1,21.5c0,11.9-9.6,21.5-21.5,21.5s-21.5-9.6-21.5-21.5S52.7,0,64.6,0C76.4,0,86.1,9.6,86.1,21.5"/>
	<g>
		<g>
			<g>
				<g>
					<defs>
						<rect id="SVGID_00000072995408032805017160000012089894795423538345_" x="54.8" y="11.6" width="19.6" height="19.6"/>
					</defs>
					<clipPath id="SVGID_00000030458994874380246090000001447003509843942288_">
						<use xlink:href="#SVGID_00000072995408032805017160000012089894795423538345_"  style="overflow:visible;"/>
					</clipPath>
					<path style="clip-path:url(#SVGID_00000030458994874380246090000001447003509843942288_);fill:#FFFFFF;" d="M64.6,13.4
						c2.6,0,2.9,0,4,0.1c1,0,1.5,0.2,1.8,0.3c0.5,0.2,0.8,0.4,1.1,0.7c0.3,0.3,0.6,0.7,0.7,1.1c0.1,0.3,0.3,0.9,0.3,1.8
						c0,1,0.1,1.3,0.1,4s0,2.9-0.1,4c0,1-0.2,1.5-0.3,1.8c-0.2,0.5-0.4,0.8-0.7,1.1c-0.3,0.3-0.7,0.6-1.1,0.7
						c-0.3,0.1-0.9,0.3-1.8,0.3c-1,0-1.3,0.1-4,0.1c-2.6,0-2.9,0-4-0.1c-1,0-1.5-0.2-1.8-0.3c-0.5-0.2-0.8-0.4-1.1-0.7
						c-0.3-0.3-0.6-0.7-0.7-1.1c-0.1-0.3-0.3-0.9-0.3-1.8c0-1-0.1-1.3-0.1-4s0-2.9,0.1-4c0-1,0.2-1.5,0.3-1.8
						c0.2-0.5,0.4-0.8,0.7-1.1s0.7-0.6,1.1-0.7c0.3-0.1,0.9-0.3,1.8-0.3C61.6,13.4,62,13.4,64.6,13.4 M64.6,11.6c-2.7,0-3,0-4,0.1
						c-1,0-1.8,0.2-2.4,0.5c-0.6,0.2-1.2,0.6-1.7,1.1s-0.9,1.1-1.1,1.7c-0.2,0.6-0.4,1.3-0.5,2.4c0,1-0.1,1.4-0.1,4s0,3,0.1,4
						c0,1,0.2,1.8,0.5,2.4c0.2,0.6,0.6,1.2,1.1,1.7s1.1,0.9,1.7,1.1s1.3,0.4,2.4,0.5c1,0,1.4,0.1,4,0.1c2.7,0,3,0,4-0.1
						c1,0,1.8-0.2,2.4-0.5c0.6-0.2,1.2-0.6,1.7-1.1s0.9-1.1,1.1-1.7s0.4-1.3,0.5-2.4c0-1,0.1-1.4,0.1-4s0-3-0.1-4
						c0-1-0.2-1.8-0.5-2.4c-0.2-0.6-0.6-1.2-1.1-1.7s-1.1-0.9-1.7-1.1c-0.6-0.2-1.3-0.4-2.4-0.5C67.6,11.6,67.2,11.6,64.6,11.6z"/>
				</g>
			</g>
		</g>
		<path class="st2" d="M64.6,16.4c-2.8,0-5,2.2-5,5s2.2,5,5,5s5-2.2,5-5S67.3,16.4,64.6,16.4 M64.6,24.7c-1.8,0-3.3-1.5-3.3-3.3
			s1.5-3.3,3.3-3.3s3.3,1.5,3.3,3.3C67.8,23.2,66.4,24.7,64.6,24.7z"/>
		<path class="st2" d="M71,16.2c0,0.6-0.5,1.2-1.2,1.2c-0.6,0-1.2-0.5-1.2-1.2s0.5-1.2,1.2-1.2C70.4,15,71,15.5,71,16.2"/>
	</g>
</g>
<g id="twitter">
	<path class="st3" d="M43.1,21.5c0,11.8-9.6,21.5-21.5,21.5S0.1,33.3,0.1,21.5C0.1,9.6,9.7,0,21.6,0S43.1,9.6,43.1,21.5"/>
	<path class="st2" d="M18.6,31.9v-9.6h-3.1v-4.1h3.1v-3.1c0,0,0.2-4.5,4.1-4.5h3.9v3.9H24c0,0-1.4,0.4-1.4,1.2v2.4h4.1v4.1h-4.3v9.6
		L18.6,31.9L18.6,31.9z"/>
</g>
<g id="facebook_00000155843006135868305370000009940520930108535964_">
	<path class="st4" d="M129.1,21.8c0,11.8-9.6,21.5-21.5,21.5s-21.5-9.7-21.5-21.5s9.6-21.5,21.5-21.5S129.1,9.9,129.1,21.8
		L129.1,21.8z"/>
	<path class="st2" d="M114.2,11.7h3.4l-7.5,8.6l8.8,11.7H112l-5.4-7.1l-6.2,7.1h-3.4l8-9.2l-8.5-11.1h7.1l4.9,6.5L114.2,11.7z
		 M113,29.9h1.9l-12.3-16.3h-2L113,29.9z"/>
</g>
<g id="youtube">
	<path class="st5" d="M172.1,21.5c0,11.9-9.6,21.5-21.5,21.5s-21.5-9.6-21.5-21.5S138.7,0,150.6,0C162.4,0,172.1,9.6,172.1,21.5"/>
	<path class="st2" d="M157,14.7h-12.9c-1.8,0-3.3,1.5-3.3,3.3v7.1c0,1.8,1.5,3.3,3.3,3.3H157c1.8,0,3.3-1.5,3.3-3.3V18
		C160.4,16.2,158.9,14.7,157,14.7 M148,25.5l-0.1-7.8l6.8,3.7L148,25.5z"/>
</g>
<g>
	<g id="LinKeDin_2_">
		<circle class="st6" cx="193.7" cy="21.4" r="21.4"/>
		<g id="LinkedIn_1_">
			<rect x="184.2" y="18.2" class="st2" width="4.1" height="12.9"/>
			<path class="st2" d="M199.3,18c-2.3,0-3.8,1.2-4.1,2.1v-2h-4.6c0.1,1.1,0,12.9,0,12.9h4.6v-6.9c0-0.4,0-0.8,0.1-1.1
				c0.3-0.8,1-1.6,2.2-1.6c1.6,0,2.3,1.2,2.3,2.9V31h4.6v-7.2C204.4,19.9,202.2,18,199.3,18z"/>
			<path class="st2" d="M186.1,12.1c-1.5,0-2.5,1-2.5,2.3c0,1.2,1,2.2,2.4,2.2h0.1c1.5,0,2.5-1,2.5-2.3
				C188.6,13.1,187.7,12.1,186.1,12.1z"/>
		</g>
	</g>
</g>
</svg>
