<?xml version="1.0" encoding="UTF-8"?><svg id="a" xmlns="http://www.w3.org/2000/svg" viewBox="0 0 24 24"><g><g><path d="M12.99,17.83c-.99-.2-2.02-.02-3,.15h-.05c-1.22,.22-2.4-.04-2.98-1.23-.31-.65-.44-1.41-.48-2.12-.05-1.09,.25-2.17-.01-3.25-.42-1.73-2.72-2.48-4.48-2.6v12.48h15.72c-1.2-.64-1.76-1.22-2.12-1.54-.83-.74-1.47-1.64-2.61-1.88Z" style="fill:#999;"/><path d="M22,6.25H2v2.52c1.76,.12,4.06,.87,4.48,2.6,.26,1.08-.03,2.16,.01,3.25,.03,.71,.17,1.48,.48,2.12,.57,1.2,1.75,1.45,2.98,1.24h.05c.98-.18,2.01-.36,3-.16,1.14,.24,1.78,1.14,2.61,1.88,.36,.32,.92,.9,2.12,1.54h4.28V6.25Z" style="fill:#efefef;"/></g><path d="M21.11,7.14v13.22H2.89V7.14H21.11m.89-.89H2v15H22V6.25h0Z"/></g><path d="M12.82,10.58c-1.01,.07-1.94,.45-2.46,1.83-.06,.16-.2,.25-.37,.25-.28,0-1.15-.7-1.4-.87,0,2.08,.96,3.91,3.24,3.91,1.92,0,3.24-1.11,3.24-3.04,0-.08-.02-.15-.02-.23l-2.23-1.85h0Zm7.35-7.82c-.38,0-.74,.17-1.02,.42-5.17,4.62-5.71,4.73-5.71,6.08,0,.35,.08,.68,.22,.98l1.61,1.34c.18,.05,.37,.08,.57,.08,1.57,0,2.48-1.15,5.34-6.48,.19-.36,.35-.75,.35-1.16,0-.73-.66-1.25-1.37-1.25Z"/></svg>