<?xml version="1.0" encoding="UTF-8"?><svg id="a" xmlns="http://www.w3.org/2000/svg" viewBox="0 0 24 24"><path d="M18.78,15.32l-.62,.6,.15,.85c.03,.15-.14,.27-.27,.2l-.77-.4-.77,.4c-.14,.07-.3-.04-.27-.2l.15-.85-.62-.6c-.11-.11-.05-.3,.1-.32l.86-.12,.38-.78c.07-.14,.27-.14,.34,0l.38,.78,.86,.12c.15,.02,.21,.21,.1,.32Z" style="fill:#999;"/><path d="M14.8,12.77l-.83,.8,.2,1.14c.04,.21-.18,.36-.36,.26l-1.02-.54-1.02,.54c-.18,.1-.4-.06-.36-.26l.2-1.14-.83-.8c-.15-.14-.07-.4,.14-.43l1.14-.17,.51-1.03c.09-.19,.36-.18,.45,0l.51,1.03,1.14,.17c.2,.03,.29,.28,.14,.43Z" style="fill:#999;"/><path d="M21.15,9.67l-1.25,1.21,.29,1.71c.05,.31-.27,.54-.55,.4l-1.54-.81-1.54,.81c-.27,.14-.6-.09-.55-.4l.29-1.71-1.25-1.21c-.22-.22-.1-.6,.21-.64l1.72-.25,.77-1.56c.14-.28,.54-.28,.68,0l.77,1.56,1.72,.25c.31,.04,.43,.43,.21,.64Z" style="fill:#999;"/><path d="M21,7.5v9H3V7.5H21m1-1H2v11H22V6.5h0Z"/></svg>