<?xml version="1.0" encoding="UTF-8"?><svg id="a" xmlns="http://www.w3.org/2000/svg" viewBox="0 0 24 24"><g><path d="M3.83,15.76v6.03h6.03v-6.03H3.83Zm4.65,2.73l-.67,.65,.16,.92c.03,.17-.15,.29-.29,.21l-.83-.44-.83,.44c-.15,.08-.32-.05-.29-.21l.16-.92-.67-.65c-.12-.12-.05-.32,.11-.35l.93-.14,.41-.84c.07-.15,.29-.15,.36,0l.41,.84,.93,.14c.17,.02,.23,.23,.11,.35Z"/><rect x="11.12" y="18.3" width="9.05" height="1.21"/><rect x="11.12" y="16.04" width="9.05" height="1.21"/><rect x="11.12" y="20.56" width="6.16" height="1.21"/></g><path d="M5.71,2.79c.17-.36,.53-.59,.93-.59h11.12c.4,0,.76,.23,.93,.59,.17,.36,.12,.79-.15,1.09l-4.69,5.76v3.27c0,.31-.18,.6-.46,.74-.28,.14-.61,.11-.86-.08l-1.65-1.24c-.21-.15-.33-.4-.33-.66v-2.04L5.84,3.88c-.25-.31-.3-.73-.13-1.09h0Z"/></svg>