<?xml version="1.0" encoding="UTF-8"?><svg id="a" xmlns="http://www.w3.org/2000/svg" viewBox="0 0 24 24"><path d="M14.52,6.28l-3.4,11.9c-.13,.45-.6,.71-1.05,.58-.45-.13-.71-.6-.58-1.05l3.4-11.9c.13-.45,.6-.71,1.05-.58,.45,.13,.71,.6,.58,1.05h0Zm2.76,2.14l2.98,2.98c.33,.33,.33,.87,0,1.2l-2.98,2.98c-.33,.33-.87,.33-1.2,0s-.33-.87,0-1.2l2.37-2.37-2.37-2.37c-.33-.33-.33-.87,0-1.2,.33-.33,.87-.33,1.2,0h0Zm-9.35,1.2l-2.37,2.37,2.37,2.37c.33,.33,.33,.87,0,1.2s-.87,.33-1.2,0l-2.98-2.98c-.33-.33-.33-.87,0-1.2l2.98-2.98c.33-.33,.87-.33,1.2,0,.33,.33,.33,.87,0,1.2h0Z"/></svg>