<?xml version="1.0" encoding="UTF-8"?><svg id="a" xmlns="http://www.w3.org/2000/svg" viewBox="0 0 24 24"><path d="M2,7.5v15H22V7.5H2Zm6.02,1.87l-1.78,1.78c-.09,.09-.23,.09-.31,0l-1.78-1.78c-.09-.09-.09-.23,0-.31l.21-.21c.09-.09,.22-.09,.31,0l1.42,1.41,1.42-1.41c.09-.09,.22-.09,.31,0l.21,.21c.09,.09,.09,.23,0,.31Zm12.98,12.13H3V12.5H21v9Z"/><rect x="4.34" y="14.71" width="15" height="1.6"/><rect x="4.34" y="17.71" width="8" height="1.6"/><path d="M2,1.53V6.53H22V1.53H2Zm4.09,2.64l-1.56,1.56c-.08,.08-.2,.08-.27,0l-.18-.18c-.08-.08-.08-.2,0-.27l1.23-1.24-1.23-1.24c-.07-.08-.07-.2,0-.27l.18-.18c.08-.08,.2-.08,.27,0l1.56,1.56c.08,.08,.08,.2,0,.27Z"/></svg>