<?xml version="1.0" encoding="UTF-8"?><svg id="a" xmlns="http://www.w3.org/2000/svg" viewBox="0 0 24 24"><rect x=".5" y="6.5" width="23" height="11" style="fill:#ccc;"/><g><path d="M6.16,8c-2.21,0-4,1.79-4,4s1.79,4,4,4,4-1.79,4-4-1.79-4-4-4Zm2.17,3.62l-.89,.87,.21,1.22c.04,.22-.2,.39-.39,.28l-1.1-.58-1.1,.58c-.2,.1-.43-.06-.39-.28l.21-1.22-.89-.87c-.16-.16-.07-.43,.15-.46l1.23-.18,.55-1.11c.1-.2,.38-.2,.48,0l.55,1.11,1.23,.18c.22,.03,.31,.3,.15,.46Z"/><rect x="11.98" y="11.36" width="9.25" height="1.6"/></g></svg>