<?xml version="1.0" encoding="UTF-8"?><svg id="a" xmlns="http://www.w3.org/2000/svg" viewBox="0 0 24 24"><rect x="2" y="19.17" width="10" height="3"/><rect x="2" y="16.31" width="20" height="1.6"/><g><polygon points="14.22 15 22 15 22 12.5 15.17 12.5 14.22 15"/><path d="M2,2V15H13.15l.88-2.34-2.04-1.07-2.2,1.16c-.39,.21-.86-.12-.78-.57l.42-2.45-1.78-1.73c-.32-.31-.14-.85,.3-.92l2.46-.36,1.1-2.23c.2-.4,.77-.4,.97,0l1.1,2.23,2.46,.36c.44,.06,.62,.61,.3,.92l-1.78,1.73,.3,1.77h7.14V2H2Z"/></g></svg>