<?xml version="1.0" encoding="UTF-8"?><svg id="a" xmlns="http://www.w3.org/2000/svg" viewBox="0 0 24 24"><g><path d="M3.83,.94V6.97h6.03V.94H3.83Zm4.65,2.73l-.67,.65,.16,.92c.03,.17-.15,.29-.29,.21l-.83-.44-.83,.44c-.15,.08-.32-.05-.29-.21l.16-.92-.67-.65c-.12-.12-.05-.32,.11-.35l.93-.14,.41-.84c.07-.15,.29-.15,.36,0l.41,.84,.93,.14c.17,.02,.23,.23,.11,.35Z"/><rect x="11.12" y="4.98" width="9.05" height="1.21"/><rect x="11.12" y="2.07" width="6.16" height="1.89"/></g><g><path d="M3.83,17.03v6.03h6.03v-6.03H3.83Zm4.65,2.73l-.67,.65,.16,.92c.03,.17-.15,.29-.29,.21l-.83-.44-.83,.44c-.15,.08-.32-.05-.29-.21l.16-.92-.67-.65c-.12-.12-.05-.32,.11-.35l.93-.14,.41-.84c.07-.15,.29-.15,.36,0l.41,.84,.93,.14c.17,.02,.23,.23,.11,.35Z"/><rect x="11.12" y="21.07" width="9.05" height="1.21"/><rect x="11.12" y="18.16" width="6.16" height="1.89"/></g><g><path d="M3.83,8.98v6.03h6.03v-6.03H3.83Zm4.65,2.73l-.67,.65,.16,.92c.03,.17-.15,.29-.29,.21l-.83-.44-.83,.44c-.15,.08-.32-.05-.29-.21l.16-.92-.67-.65c-.12-.12-.05-.32,.11-.35l.93-.14,.41-.84c.07-.15,.29-.15,.36,0l.41,.84,.93,.14c.17,.02,.23,.23,.11,.35Z"/><rect x="11.12" y="13.03" width="9.05" height="1.21"/><rect x="11.12" y="10.11" width="6.16" height="1.89"/></g></svg>