<?xml version="1.0" encoding="UTF-8"?><svg id="a" xmlns="http://www.w3.org/2000/svg" viewBox="0 0 24 24"><g><path d="M3.76,1.83l-.73,1.48-1.64,.24c-.29,.04-.41,.4-.2,.61l1.19,1.16-.28,1.63c-.05,.29,.26,.52,.52,.38l1.47-.77,1.47,.77c.26,.14,.57-.08,.52-.38l-.28-1.63,1.19-1.16c.21-.21,.1-.57-.2-.61l-1.64-.24-.73-1.48c-.13-.26-.51-.27-.64,0h0Z"/><rect x="8.92" y="3.99" width="13.84" height="1.6"/></g><rect x="1.92" y="19.08" width="3" height="3" rx="1.5" ry="1.5"/><rect x="1.92" y="9.12" width="21" height="7.79"/><rect x="6.45" y="19.79" width="7.47" height="1.6"/></svg>