<svg id="Layer_1" data-name="Layer 1" xmlns="http://www.w3.org/2000/svg" viewBox="0 0 24 24"><path d="M3.76,1.83,3,3.31l-1.64.24a.36.36,0,0,0-.2.61L2.38,5.32,2.1,7a.36.36,0,0,0,.52.38l1.46-.77,1.47.77A.36.36,0,0,0,6.07,7L5.79,5.32,7,4.16a.35.35,0,0,0-.2-.61L5.14,3.31,4.4,1.83a.35.35,0,0,0-.64,0Z"/><rect x="8.92" y="3.99" width="13.84" height="1.6"/><rect x="1.92" y="19.08" width="3" height="3" rx="1.5"/><rect x="1.92" y="9.12" width="21" height="7.79"/><rect x="6.45" y="19.79" width="7.47" height="1.6"/></svg>