<svg id="Layer_1" data-name="Layer 1" xmlns="http://www.w3.org/2000/svg" viewBox="0 0 24 24"><path d="M1,2v6.5H11V2ZM8.17,5l-.89.87.21,1.23a.27.27,0,0,1-.39.28L6,6.76l-1.1.58a.27.27,0,0,1-.39-.28l.21-1.23L3.83,5A.26.26,0,0,1,4,4.51l1.23-.18.55-1.12a.27.27,0,0,1,.48,0l.55,1.12L8,4.51A.26.26,0,0,1,8.17,5Z"/><path d="M1,9v2H11V9Zm1.38,1.71v-.5H1.53V9.83h.85V9.32l1,.71Z"/><path d="M13,2v6.5H23V2Zm7.17,3-.89.87.21,1.23a.27.27,0,0,1-.39.28L18,6.76l-1.1.58a.27.27,0,0,1-.39-.28l.21-1.23L15.83,5A.26.26,0,0,1,16,4.51l1.23-.18.55-1.12a.27.27,0,0,1,.48,0l.55,1.12L20,4.51A.26.26,0,0,1,20.17,5Z"/><path d="M13,9v2H23V9Zm1.38,1.71v-.5h-.85V9.83h.85V9.32l1,.71Z"/><path d="M1,13v6.5H11V13Zm7.17,3-.89.87.21,1.23a.27.27,0,0,1-.39.28L6,17.76l-1.1.58a.27.27,0,0,1-.39-.28l.21-1.23L3.83,16A.26.26,0,0,1,4,15.51l1.23-.18.55-1.12a.27.27,0,0,1,.48,0l.55,1.12L8,15.51A.26.26,0,0,1,8.17,16Z"/><path d="M1,20v2H11V20Zm1.38,1.71v-.5H1.53v-.41h.85v-.51l1,.71Z"/><path d="M13,13v6.5H23V13Zm7.17,3-.89.87.21,1.23a.27.27,0,0,1-.39.28L18,17.76l-1.1.58a.27.27,0,0,1-.39-.28l.21-1.23L15.83,16a.26.26,0,0,1,.15-.45l1.23-.18.55-1.12a.27.27,0,0,1,.48,0l.55,1.12,1.23.18A.26.26,0,0,1,20.17,16Z"/><path d="M13,20v2H23V20Zm1.38,1.71v-.5h-.85v-.41h.85v-.51l1,.71Z"/></svg>