<?xml version="1.0" encoding="UTF-8"?><svg id="a" xmlns="http://www.w3.org/2000/svg" viewBox="0 0 24 24"><path d="M1,1.97v6.5H11V1.97H1Zm7.17,3l-.89,.87,.21,1.22c.04,.22-.2,.39-.39,.28l-1.1-.58-1.1,.58c-.2,.1-.43-.06-.39-.28l.21-1.22-.89-.87c-.16-.16-.07-.43,.15-.46l1.23-.18,.55-1.11c.1-.2,.38-.2,.48,0l.55,1.11,1.23,.18c.22,.03,.31,.3,.15,.46Z"/><path d="M1,9.03v2H11v-2H1Zm1.38,1.71v-.51h-.86v-.41h.86v-.51l1,.71-1,.71Z"/><path d="M13,1.97v6.5h10V1.97H13Zm7.17,3l-.89,.87,.21,1.22c.04,.22-.2,.39-.39,.28l-1.1-.58-1.1,.58c-.2,.1-.43-.06-.39-.28l.21-1.22-.89-.87c-.16-.16-.07-.43,.15-.46l1.23-.18,.55-1.11c.1-.2,.38-.2,.48,0l.55,1.11,1.23,.18c.22,.03,.31,.3,.15,.46Z"/><path d="M13,9.03v2h10v-2H13Zm1.38,1.71v-.51h-.86v-.41h.86v-.51l1,.71-1,.71Z"/><path d="M1,12.97v6.5H11v-6.5H1Zm7.17,3l-.89,.87,.21,1.22c.04,.22-.2,.39-.39,.28l-1.1-.58-1.1,.58c-.2,.1-.43-.06-.39-.28l.21-1.22-.89-.87c-.16-.16-.07-.43,.15-.46l1.23-.18,.55-1.11c.1-.2,.38-.2,.48,0l.55,1.11,1.23,.18c.22,.03,.31,.3,.15,.46Z"/><path d="M1,20.03v2H11v-2H1Zm1.38,1.71v-.51h-.86v-.41h.86v-.51l1,.71-1,.71Z"/><path d="M13,12.97v6.5h10v-6.5H13Zm7.17,3l-.89,.87,.21,1.22c.04,.22-.2,.39-.39,.28l-1.1-.58-1.1,.58c-.2,.1-.43-.06-.39-.28l.21-1.22-.89-.87c-.16-.16-.07-.43,.15-.46l1.23-.18,.55-1.11c.1-.2,.38-.2,.48,0l.55,1.11,1.23,.18c.22,.03,.31,.3,.15,.46Z"/><path d="M13,20.03v2h10v-2H13Zm1.38,1.71v-.51h-.86v-.41h.86v-.51l1,.71-1,.71Z"/></svg>