<?xml version="1.0" encoding="UTF-8"?><svg id="a" xmlns="http://www.w3.org/2000/svg" viewBox="0 0 24 24"><g><rect x=".4" y="15.11" width="6.24" height="1.43"/><path d="M3.52,7.45c-1.77,0-3.21,1.44-3.21,3.21s1.44,3.21,3.21,3.21,3.21-1.44,3.21-3.21-1.44-3.21-3.21-3.21Zm1.9,2.86l-.78,.76,.18,1.07c.03,.19-.17,.34-.34,.25l-.96-.51-.96,.51c-.17,.09-.38-.05-.34-.25l.18-1.07-.78-.76c-.14-.14-.06-.38,.13-.4l1.08-.16,.48-.98c.09-.18,.34-.17,.42,0l.48,.98,1.08,.16c.19,.03,.27,.27,.13,.4Z"/></g><g><rect x="8.88" y="15.11" width="6.24" height="1.43"/><path d="M12,7.45c-1.77,0-3.21,1.44-3.21,3.21s1.44,3.21,3.21,3.21,3.21-1.44,3.21-3.21-1.44-3.21-3.21-3.21Zm1.9,2.86l-.78,.76,.18,1.07c.03,.19-.17,.34-.34,.25l-.96-.51-.96,.51c-.17,.09-.38-.05-.34-.25l.18-1.07-.78-.76c-.14-.14-.06-.38,.13-.4l1.08-.16,.48-.98c.09-.18,.34-.17,.42,0l.48,.98,1.08,.16c.19,.03,.27,.27,.13,.4Z"/></g><g><rect x="17.36" y="15.11" width="6.24" height="1.43"/><path d="M20.48,7.45c-1.77,0-3.21,1.44-3.21,3.21s1.44,3.21,3.21,3.21,3.21-1.44,3.21-3.21-1.44-3.21-3.21-3.21Zm1.9,2.86l-.78,.76,.18,1.07c.03,.19-.17,.34-.34,.25l-.96-.51-.96,.51c-.17,.09-.38-.05-.34-.25l.18-1.07-.78-.76c-.14-.14-.06-.38,.13-.4l1.08-.16,.48-.98c.09-.18,.34-.17,.42,0l.48,.98,1.08,.16c.19,.03,.27,.27,.13,.4Z"/></g></svg>