<?xml version="1.0" encoding="UTF-8"?><svg id="a" xmlns="http://www.w3.org/2000/svg" viewBox="0 0 24 24"><g><rect x="21.19" y="11.28" width="2.41" height="1.43"/><polygon points="21.52 9.5 18 12 21.52 14.5 21.52 9.5"/></g><rect x="2" y="2" width="20" height="4"/><polygon points="7 7.06 7 7.64 7 8.8 17 8.8 17 7.64 17 7.06 17 6.8 7 6.8 7 7.06"/><polygon points="2 18.53 2 19.68 2 22 22 22 22 19.68 22 18.53 22 18 2 18 2 18.53"/><g><rect x=".6" y="11.31" width="2.32" height="1.38"/><polygon points="2.61 14.41 6 12 2.61 9.59 2.61 14.41"/></g><polygon points="7 9.86 7 10.44 7 11.6 17 11.6 17 10.44 17 9.86 17 9.6 7 9.6 7 9.86"/><polygon points="7 12.66 7 13.24 7 14.4 17 14.4 17 13.24 17 12.66 17 12.4 7 12.4 7 12.66"/><polygon points="7 15.46 7 16.04 7 17.2 17 17.2 17 16.04 17 15.46 17 15.2 7 15.2 7 15.46"/></svg>