<?xml version="1.0" encoding="UTF-8"?><svg id="a" xmlns="http://www.w3.org/2000/svg" viewBox="0 0 24 24"><g><path d="M3.83,8.98v6.03h6.03v-6.03H3.83Zm4.65,2.73l-.67,.65,.16,.92c.03,.17-.15,.29-.29,.21l-.83-.44-.83,.44c-.15,.08-.32-.05-.29-.21l.16-.92-.67-.65c-.12-.12-.05-.32,.11-.35l.93-.14,.41-.84c.07-.15,.29-.15,.36,0l.41,.84,.93,.14c.17,.02,.23,.23,.11,.35Z"/><rect x="11.12" y="11.52" width="9.05" height="1.21"/><rect x="11.12" y="9.25" width="9.05" height="1.21"/><rect x="11.12" y="13.78" width="6.16" height="1.21"/></g><g><path d="M3.83,17.03v6.03h6.03v-6.03H3.83Zm4.65,2.73l-.67,.65,.16,.92c.03,.17-.15,.29-.29,.21l-.83-.44-.83,.44c-.15,.08-.32-.05-.29-.21l.16-.92-.67-.65c-.12-.12-.05-.32,.11-.35l.93-.14,.41-.84c.07-.15,.29-.15,.36,0l.41,.84,.93,.14c.17,.02,.23,.23,.11,.35Z"/><rect x="11.12" y="19.56" width="9.05" height="1.21"/><rect x="11.12" y="17.3" width="9.05" height="1.21"/><rect x="11.12" y="21.82" width="6.16" height="1.21"/></g><g><path d="M3.83,.94V6.97h6.03V.94H3.83Zm4.65,2.73l-.67,.65,.16,.92c.03,.17-.15,.29-.29,.21l-.83-.44-.83,.44c-.15,.08-.32-.05-.29-.21l.16-.92-.67-.65c-.12-.12-.05-.32,.11-.35l.93-.14,.41-.84c.07-.15,.29-.15,.36,0l.41,.84,.93,.14c.17,.02,.23,.23,.11,.35Z"/><rect x="11.12" y="3.47" width="9.05" height="1.21"/><rect x="11.12" y="1.21" width="9.05" height="1.21"/><rect x="11.12" y="5.74" width="6.16" height="1.21"/></g></svg>