<svg xmlns="http://www.w3.org/2000/svg" viewBox="0 0 497.51 350.35"><polygon points="305.85 108.78 305.9 0.76 169.61 0.69 168.44 0 167.85 1.88 168.44 3.48 170.77 5.35 171.36 6.97 172.23 10.44 174.27 13.39 173.11 13.39 174.56 16.61 173.69 18.75 172.51 23.3 172.51 26.51 171.35 25.97 170.76 27.85 172.51 32.41 164.91 47.92 163.16 51.94 163.15 54.08 164.32 55.7 164.91 57.31 164.32 59.45 164.6 60.24 170.46 65.34 173.08 66.68 173.95 69.36 175.71 70.96 178.34 74.45 179.21 76.06 182.13 78.46 182.13 80.61 183 82.48 183.59 87.83 182.71 89.98 181.83 92.38 181.83 95.87 182.71 98.28 184.45 102.57 186.21 106.04 185.03 110.06 185.62 111.4 187.37 113.01 189.71 115.15 192.63 117.83 193.22 118.9 194.96 119.43 196.42 121.58 199.35 125.59 201.39 126.93 205.48 129.34 207.22 133.64 208.4 133.64 210.15 134.97 210.73 136.04 212.49 138.72 211.03 138.72 210.15 137.65 209.57 137.92 210.15 139.25 208.98 145.41 209.26 146.22 210.72 145.41 211.02 144.08 211.9 143.27 212.49 144.88 213.94 144.88 215.41 145.95 216.28 147.29 217.74 148.09 219.5 149.17 220.37 148.63 222.7 150.51 225.05 152.12 225.92 152.39 225.63 149.98 225.92 149.98 227.08 150.77 227.68 150.51 226.51 148.63 225.92 146.77 226.51 145.7 225.05 144.88 225.93 141.68 224.75 140.6 226.51 141.14 227.97 139.26 228.85 139.53 232.64 140.87 232.64 141.95 233.81 142.21 235.27 143.02 236.73 143.82 236.73 144.35 235.86 144.1 233.51 143.82 232.35 145.16 230.01 145.16 228.55 147.58 231.76 149.98 231.76 150.77 232.05 153.46 232.94 154.79 236.43 157.21 237.9 161.49 238.77 163.37 242.56 165.79 241.69 166.32 240.82 166.32 239.36 166.05 239.06 165.51 237.31 163.91 234.68 162.84 232.63 161.23 229.71 160.42 230 158.81 229.13 157.21 230.3 155.6 229.71 155.07 229.72 153.46 228.55 153.46 227.38 153.19 226.21 153.72 225.05 154.26 225.92 157.21 225.63 158.55 226.21 160.14 225.04 160.68 225.62 164.16 226.79 164.44 227.38 165.24 227.95 167.92 228.83 168.19 228.83 170.32 228.25 173.81 228.83 175.14 230 176.49 231.16 178.09 231.46 179.16 232.62 179.16 234.09 181.58 237.59 184.25 239.93 184.79 241.68 184.52 243.43 185.06 244.02 184.26 246.35 185.33 248.69 188 248.69 192.03 247.81 196.58 244.59 196.84 243.13 198.98 243.13 200.86 244.59 203.8 246.64 210.23 248.09 211.58 251.01 212.91 253.06 214.79 258.32 221.49 259.19 223.9 264.45 229.26 265.32 231.93 269.71 234.88 274.67 240.77 278.76 241.04 279.34 245.33 278.16 246.4 279.64 249.87 283.43 251.75 286.06 252.01 286.93 253.63 286.06 257.91 286.06 259.79 285.76 260.59 287.22 263.27 286.63 265.14 287.21 267.82 286.05 272.37 286.34 274.24 290.13 275.05 292.18 278 307.97 278.27 310 279.34 317.3 280.16 319.93 279.35 324.61 280.69 328.12 283.91 331.03 284.98 333.37 290.07 335.41 291.68 340.68 293.01 341.26 293.29 345.06 294.08 346.23 294.62 354.11 294.09 356.45 295.16 359.37 301.06 359.37 302.13 358.49 304.01 362.59 305.88 363.75 304.27 365.8 303.48 368.43 304.27 373.39 308.3 375.14 309.63 376.9 310.17 381.86 315 385.07 316.86 389.75 321.42 395.87 332.14 396.75 336.16 395.87 338.56 397.32 341.77 396.45 342.58 396.45 344.19 397.03 344.72 398.21 343.38 398.79 343.12 401.13 345 401.42 346.86 399.08 344.99 398.5 344.99 399.08 345.79 400.25 347.4 400.25 350.35 433.26 347.15 477.96 343.15 482.65 343.08 483.83 342.13 484.73 339.45 486.22 337.77 486.21 333.23 484.37 331.36 480.28 331.09 478.9 330.01 478.6 328.12 479.15 323.07 477.62 321.52 478.31 319.55 478.03 317.78 479.19 316.86 482.05 314.23 481.44 313.2 483.19 312.84 484.65 309.37 484.05 306.79 484.96 305.64 484.16 298.42 487.01 295.8 486.69 295 487.98 292.61 495.78 286.41 497.51 285.81 497.26 284.5 489.64 278.31 487 269.21 482.92 265.48 483.9 263.61 481.87 262.57 480.95 259.56 480.97 257.42 305.85 108.78" fill="#febf10"/><polygon points="256.31 139.71 236.56 150.09 240.33 128.1 224.35 112.52 246.44 109.31 256.31 89.3 266.19 109.31 288.27 112.52 272.29 128.1 276.06 150.09 256.31 139.71" fill="#fff"/><path d="M379.87,213.55l8.55,17.32,19.12,2.78L393.7,247.13l3.27,19-17.1-9-17.09,9,3.26-19-13.83-13.48,19.12-2.78,8.54-17.32m0-9-3.58,7.26-7.62,15.44-17,2.47-8,1.17,5.8,5.66,12.32,12-2.91,17-1.37,8,7.18-3.77,15.23-8,15.24,8,7.17,3.77-1.37-8-2.91-17,12.33-12,5.8-5.66-8-1.17-17-2.47-7.62-15.44-3.59-7.26Z" transform="translate(-123.56 -119.73)" fill="#142a50"/><path d="M461.43,297.4c-4.05,0-7-2.92-7.62-7.45a18.26,18.26,0,0,1,1.63-9.49c3.45-8.68,11-15.53,17.09-15.53,4.12,0,7,2.85,7.62,7.44a19.16,19.16,0,0,1-1.6,9.69C475.14,290.63,467.61,297.4,461.43,297.4Z" transform="translate(-123.56 -119.73)" fill="#fff"/><path d="M472.53,266.93c3.14,0,5.19,2.16,5.63,5.69a17,17,0,0,1-1.45,8.64c-3.12,7.85-10,14.14-15.28,14.14-3.14,0-5.21-2.36-5.63-5.7a16.46,16.46,0,0,1,1.47-8.44c3.13-7.85,10-14.33,15.26-14.33m0-4c-5.94,0-14.59,5.88-18.95,16.79a20.22,20.22,0,0,0-1.75,10.49c.7,5.49,4.56,9.19,9.6,9.19,7,0,15.19-7.14,19-16.6a21.19,21.19,0,0,0,1.72-10.68c-.71-5.59-4.48-9.19-9.6-9.19Z" transform="translate(-123.56 -119.73)" fill="#142a50"/><path d="M349.55,463.84a40.6,40.6,0,0,1-6-.42c-11.57-1.63-20.59-8.95-23.53-18.74-11.66,14.06-29,19.16-41,19.16a40.36,40.36,0,0,1-5.95-.42c-13.07-1.84-22.87-10.94-24.37-22.65A30,30,0,0,1,251.05,425l0-.12.06-.11c11.07-19.31,35.26-27.19,58.65-34.81,2.66-.86,5.31-1.72,7.93-2.6.32-1.53.61-3,.87-4.23-5.16,4.05-12.21,7.3-18.54,7.3a15,15,0,0,1-7.75-2.06,13.64,13.64,0,0,1-4.75-5.06c-5.84,6.23-14.94,12.77-27.67,13.22l-1,0c-11.54,0-20.22-7.34-21.61-18.26-.46-3.57,0-7.8,1.45-13,0-.18,1.47-6,7.36-23l-.81-.06c-1.09-.09-2.58-.2-2.89-.2-3.38,0-10-1-19.68-3.06-23.72,35.71-38.86,55.89-68.85,55.89-8.9,0-16.31-3.12-21.43-9-5.64-6.5-7.93-15.93-6.43-26.57a54.45,54.45,0,0,1,20.39-35.1c11.25-8.92,23.19-12.73,39.91-12.73,7.88,0,15.57,1.24,22.35,2.34,2.44.39,4.75.77,6.87,1.05,26.23-37.37,38.87-53.05,50.3-62.05-7-3.08-15.54-6.48-25.26-6.48-20.39,0-27.61,12.56-28.59,19.27-.24,3.59-4.69,5.2-9,5.2-1.52,0-5.26-.23-7.09-2.34a3.83,3.83,0,0,1-.93-3.08c1.67-11.87,8.31-22.39,18.7-29.61,9.49-6.61,21.74-10.24,34.49-10.24,17.34,0,29.6,3.44,38.55,6,5.42,1.52,9.7,2.72,13.23,2.72,5.35,0,8.94-1.72,12.11-3.24,2.29-1.09,4.45-2.12,6.89-2.12a5.64,5.64,0,0,1,4.49,1.74c1.52,1.74,1.38,4.18,1.14,5.87-.56,4-3.62,6.51-4.78,7.45l-.16.14c-2.68,2.42-9.05,8.43-11.32,11.06-5.66,6.47-11.67,14.12-17.62,30l-7.92,21.14c1.82-1.28,3.25-2.36,4-3a3.29,3.29,0,0,1,2.19-.84c2,0,3.8,1.77,5,4.85,1.85,4.68,1.89,11.11-2.18,14.92a75.41,75.41,0,0,1-19.26,13.53l-.92,2.54c-.71,2.07-1.38,4-1.93,5.58-1.65,5.58-6,19.76-6.06,19.9-1.94,6.75-.79,10.74.59,11.31a6.84,6.84,0,0,0,2.84.65c8.33,0,17.46-16.27,20.5-25,.54-1.79,1.15-3.51,1.77-5,7.7-19,24.88-38.35,42.81-38.35h.29c4.43,0,7.24,1.28,9,2.61l.11-.26a3.7,3.7,0,0,1,3.43-2.88,3.52,3.52,0,0,1,.63.06,8.9,8.9,0,0,0,1.7.13c5.06,0,13.79-2.24,16.1-4.13a2.61,2.61,0,0,1,1.68-.63,2.5,2.5,0,0,1,2.16,1.29,4.09,4.09,0,0,1,0,3.83c-12.54,22.29-19.6,46.88-25.18,70.41a67.65,67.65,0,0,0,13.07-8.42,67.38,67.38,0,0,1,4.72-23.66c7.69-19,24.87-38.35,42.8-38.35h.29c4.43,0,7.24,1.28,9,2.61l.11-.26a3.7,3.7,0,0,1,3.43-2.88,3.55,3.55,0,0,1,.64.06,8.83,8.83,0,0,0,1.7.13c5.06,0,13.78-2.24,16.09-4.13a2.63,2.63,0,0,1,1.68-.63,2.53,2.53,0,0,1,2.17,1.29,4.12,4.12,0,0,1,0,3.83c-12.53,22.29-19.59,46.87-25.17,70.4a65,65,0,0,0,14-9.25,32.91,32.91,0,0,1,1.16-9.15c1.43-6.93,8.19-25.19,18.11-48.91a4,4,0,0,1,3.76-3.14,4.91,4.91,0,0,1,.53,0,13.35,13.35,0,0,0,1.89.12c5.65,0,14-2.42,16.52-4.79a2.69,2.69,0,0,1,1.85-.78,2.52,2.52,0,0,1,2.13,1.22,4.72,4.72,0,0,1,.19,4.17c-1.61,3.44-3.26,6.89-4.9,10.33-6.52,13.65-13.26,27.76-17.12,40.6-1.75,6.11.71,10.55,2.59,11.32a6.67,6.67,0,0,0,2.78.64c2.31,0,4.76-1.36,7.29-4.06,0-.12,0-.25-.05-.37-1.66-13.07,4.07-28.88,15-41.26,9.82-11.15,22.07-17.54,33.61-17.54,9.37,0,15,4.1,16,11.56,2.66,20.85-23.11,40.62-38.82,46.25l0,.67c.54,6.69,4.31,9.85,11.87,9.85a23,23,0,0,0,13.44-4.48,20.37,20.37,0,0,1,5.21-14.47c8.77-9.83,19.6-29.69,25.77-44.24,1.73-4.13,2-5.06,2.2-6.1a11.44,11.44,0,0,1,11.28-9.82,11,11,0,0,1,5,1.18c4.55,2.57,5.84,7.51,3.45,12.94a13.31,13.31,0,0,1-3.83,5.35l-.61.58-.28.32a6,6,0,0,0-1.9,3.45c-.17,1.86.73,3,2.46,4.91.41.46.84.93,1.25,1.43,1.07,1.32,2.26,2.61,3.52,4,4.72,5.13,10.08,10.94,11.25,20.2a35.68,35.68,0,0,1-3.59,20.92,26.29,26.29,0,0,0,7.75-7.34,85.1,85.1,0,0,0,9.53-19.21,3.32,3.32,0,0,1,3.44-2.32c2.56,0,6,1.89,8,4.4a7.63,7.63,0,0,1,1.67,6.62,54.22,54.22,0,0,1-16,27.93c-6.75,5.86-15.41,9.34-23.18,9.34a23.4,23.4,0,0,1-9.73-2,42.3,42.3,0,0,1-16.58,3.54,32,32,0,0,1-13.12-2.73,22.05,22.05,0,0,1-5.56-3.54,52,52,0,0,1-25.2,6.07c-10.76,0-19.79-3.43-25.7-9.7a34.9,34.9,0,0,1-21.37,8l-1,0c-7.88,0-14.57-3.43-18.38-9.3a70.61,70.61,0,0,1-21.28,12.88c-3.55,15.72-6.65,29.29-11.05,39.05C388.15,454.36,366.64,463.84,349.55,463.84Zm35.56-62c-23,8.31-37.75,17.4-39.68,24.56-1.33,4.92-1,8.84.89,11.34s5.1,3.09,7.4,3.09a18.18,18.18,0,0,0,5-.75c3.75-1,16.23-5.22,20.81-17.27C380.88,419.29,382.8,412.08,385.11,401.84Zm-70.48,0c-23,8.31-37.75,17.4-39.69,24.56-1.33,4.92-1,8.84.9,11.34s5.1,3.09,7.4,3.09a18.24,18.24,0,0,0,5-.75c3.75-1,16.22-5.22,20.81-17.27C310.4,419.29,312.31,412.08,314.63,401.84Zm23.64-7.71c-1.28,5.69-2.52,11.15-3.79,16.27,12.4-9.56,29.37-15.08,45.85-20.45,2.64-.86,5.28-1.72,7.9-2.59l.86-4.23c-5.16,4.05-12.21,7.3-18.53,7.3a15,15,0,0,1-7.76-2.06,13.91,13.91,0,0,1-5-5.59A71.6,71.6,0,0,1,338.27,394.13ZM535.68,380a9.18,9.18,0,0,0,2.29.3h.33c4.27,0,14.42-2,16.45-20.41a48.63,48.63,0,0,0-.19-10.33,37.27,37.27,0,0,0-2.55-9.87,82.32,82.32,0,0,1-10.72,18.18c3.63,3.36,4.76,8,3.18,13.22A12.47,12.47,0,0,1,535.68,380Zm-353.12-49c-17.64,0-37.52,7.37-40.42,28-.79,5.61,0,9.79,2.26,12.42s6.6,4.09,12.6,4.09c14.3,0,26.5-14,44.92-41.6A72.41,72.41,0,0,0,182.56,331.05Zm221.33-10.33c-5.59,0-16.13,6.19-22.29,23.23-3.4,8.83-3.63,14.4-3.23,17.52.23,1.86,1,5.07,3.62,5.79a7.15,7.15,0,0,0,2.07.28,10.74,10.74,0,0,0,10.41-7.89c.07-.25,5.69-19.33,11.42-34.37l0-.1c.63-1.41.69-2.63.17-3.43A2.54,2.54,0,0,0,403.89,320.72Zm-70.48,0c-5.59,0-16.13,6.19-22.29,23.23-3.4,8.83-3.64,14.4-3.24,17.52.24,1.86,1,5.07,3.62,5.79a7.27,7.27,0,0,0,2.08.28A10.74,10.74,0,0,0,324,359.65c.07-.25,5.69-19.33,11.42-34.37l0-.1c.63-1.41.69-2.63.16-3.43A2.53,2.53,0,0,0,333.41,320.72Zm180.18-.78c-7.28,0-17.89,18.51-22.07,29.59a83.08,83.08,0,0,0,14.18-10.59c4.84-4.56,10.45-11.33,9.65-17.61C515.25,320.61,515,319.94,513.59,319.94Zm-280-1.07a115.91,115.91,0,0,0,12.34,1.19,41.53,41.53,0,0,0,8.24-.54c2.34-6.39,14.29-39.13,16.39-44.63a70.34,70.34,0,0,1,6.08-12,132.71,132.71,0,0,0-13.09,13.44c-2,2.36-4.1,5.05-6.54,8.18-5.2,6.91-10,14.17-14.62,21.2C239.52,310.07,236.59,314.51,233.57,318.87Z" transform="translate(-123.56 -119.73)" fill="#fff"/><path d="M248.11,227.52c17.06,0,29.17,3.4,38,5.88,5.57,1.56,10,2.8,13.77,2.8,5.8,0,9.78-1.91,13-3.43,2.16-1,4-1.93,6-1.93,3.31,0,4.12,2,3.65,5.33s-3.07,5.38-4.06,6.18l-.17.15c-2.85,2.57-9.21,8.56-11.57,11.29-5.58,6.4-11.86,14.28-18,30.62l-9.36,24.95-.66,1.95a102.55,102.55,0,0,0,9.3-6.56,1.34,1.34,0,0,1,.91-.37c3.07,0,6.91,11.22,1.47,16.31a74,74,0,0,1-19.51,13.55l-.14.41c-.35,1-.7,2-1,2.89-.72,2.1-1.39,4-1.94,5.6-1.69,5.73-6.08,20-6.08,20-2.06,7.16-1.15,12.57,1.75,13.75a8.53,8.53,0,0,0,3.59.8c10.35,0,19.81-18.93,22.39-26.33.54-1.78,1.12-3.44,1.73-4.92,7.58-18.75,24.33-37.11,41-37.11h.26c7.86,0,9.59,4.32,9.59,4.32l1.41-3.34c.11-.54.62-1.51,1.53-1.51l.26,0a11.42,11.42,0,0,0,2.08.16c5.29,0,14.55-2.29,17.35-4.58a.64.64,0,0,1,.42-.18c.62,0,.86,1.37.42,2.14-13.62,24.23-20.82,51.21-26.33,75a73.48,73.48,0,0,0,18-11.12,64.76,64.76,0,0,1,4.57-23.81c7.57-18.75,24.32-37.11,40.95-37.11h.27c7.85,0,9.58,4.32,9.58,4.32l1.41-3.34c.11-.54.62-1.51,1.53-1.51a1.15,1.15,0,0,1,.26,0,11.5,11.5,0,0,0,2.08.16c5.29,0,14.55-2.29,17.36-4.58a.63.63,0,0,1,.41-.18c.62,0,.86,1.37.43,2.14-13.63,24.23-20.82,51.21-26.34,75,7.2-3.3,13.7-7.15,19-12a30.73,30.73,0,0,1,1.08-9.55c1.35-6.68,8-24.77,18.07-48.76a2.11,2.11,0,0,1,1.85-1.76l.25,0a14.57,14.57,0,0,0,2.17.14c5.91,0,14.86-2.5,17.89-5.33a.71.71,0,0,1,.48-.24c.67,0,.94,1.61.5,2.54-8.15,17.43-17.25,35-22.12,51.2-2.05,7.16.86,12.57,3.76,13.75a8.54,8.54,0,0,0,3.53.79c3.43,0,6.61-2.21,9.42-5.42-.07-.42-.14-.83-.19-1.26-3.16-24.74,21.46-56.55,46.59-56.55,6.68,0,13,2.16,14,9.81,2.5,19.64-22.66,39.47-38.9,44.58l.08,2.16c.66,8.25,5.82,11.78,13.87,11.78a25.47,25.47,0,0,0,15.48-5.49h0a18.58,18.58,0,0,1,4.68-14.14c8.6-9.62,19.62-29.45,26.11-44.77,1.81-4.32,2.07-5.3,2.32-6.48a9.4,9.4,0,0,1,9.32-8.22,9.06,9.06,0,0,1,4.08,1c3.81,2.16,4.34,6.28,2.51,10.41-1,2.75-2.64,3.92-4,5.3-1.2,1.37-2.42,2.55-2.71,4.91-.34,3.53,2.05,5.3,4.14,7.85,5.12,6.28,12.94,12.17,14.34,23.17,1.18,9.23-1.34,15.71-4,21-.46,1-.58,1.57-.14,2a1,1,0,0,0,.85.29,5,5,0,0,0,1.51-.29c2.42-1,6-3.74,9.52-8.45a87.56,87.56,0,0,0,9.85-19.83c.17-.62.74-.9,1.52-.9,2.93,0,8.81,3.91,7.7,8.56A52.2,52.2,0,0,1,588.53,380c-5.66,4.91-13.8,8.83-21.85,8.83a21.05,21.05,0,0,1-9.7-2.16,40.55,40.55,0,0,1-16.61,3.74,30.1,30.1,0,0,1-12.3-2.56,20.06,20.06,0,0,1-6.1-4.18c-7.34,4.42-16.27,6.54-25.48,6.54-10.19,0-19.65-3.22-25.5-10.51a33,33,0,0,1-21.64,8.84l-.93,0c-8.31,0-14.82-4-17.88-10.49A67.69,67.69,0,0,1,407,392.64c-3.61,16-6.77,30-11.16,39.72-9.59,21.27-30.92,29.48-46.33,29.48a37.51,37.51,0,0,1-5.66-.4c-12.37-1.74-21.32-10.22-22.68-20.93,0-.2,0-.4-.06-.6-10.74,15.69-28.66,21.93-42.09,21.93a37.38,37.38,0,0,1-5.65-.4c-12.37-1.74-21.32-10.22-22.68-20.93a28,28,0,0,1,2.17-14.75c12.07-21.06,40.54-28.11,66.57-36.87,1.4-6.73,2.35-11.65,2.35-11.65-4.07,5.1-13.5,11.19-21.75,11.19a12,12,0,0,1-12-8.77c-6.62,8-16,14.43-28.28,14.87l-.93,0c-10.66,0-18.36-6.59-19.63-16.51-.47-3.73.22-7.92,1.39-12.18,0,0,1.42-5.85,7.44-23.22l.72-2.07-.39-.14h0c-.75,0-5.24-.4-6-.4-4.12,0-13-1.68-20.6-3.3-24.47,36.9-39.16,56.13-67.93,56.13-18,0-28.64-13.69-25.88-33.29a52.43,52.43,0,0,1,19.66-33.81c11.13-8.84,22.83-12.3,38.66-12.3,10.95,0,21.75,2.48,29.76,3.47l.4.05c27.16-38.72,40.62-55.65,53.31-64.62l-1.22-.54c-7.55-3.34-16.95-7.5-28-7.5-21.85,0-29.56,13.79-30.58,21.08-.1,2.26-3.66,3.39-7.05,3.39s-6.33-1-6-3.14c1.59-11.31,7.94-21.35,17.86-28.25,9.16-6.37,21-9.88,33.35-9.88m-2.2,94.54a43.05,43.05,0,0,0,9.73-.77s14.43-39.56,16.77-45.68c3.76-9.19,7.54-15.06,13.79-20.93a44.65,44.65,0,0,0-9.05,5.13A133.6,133.6,0,0,0,262,275.07c-2,2.43-4.2,5.17-6.6,8.26-9.12,12.1-16.67,24.84-25.33,37a125.77,125.77,0,0,0,15.83,1.71M488.1,353.68c10-4.91,30.88-19.64,29.23-32.6a3.42,3.42,0,0,0-3.74-3.14c-10.4,0-23.45,27.1-25.49,35.74m-104,15.86a12.81,12.81,0,0,0,12.35-9.38s5.58-19,11.35-34.17c1.95-4.38-.53-7.27-3.87-7.27-6.87,0-17.92,7.27-24.17,24.55-3,7.66-3.91,13.94-3.34,18.46.5,3.92,2.23,6.67,5.08,7.46a9.24,9.24,0,0,0,2.6.35m-70.48,0a12.79,12.79,0,0,0,12.34-9.38s5.59-19,11.36-34.17c2-4.38-.53-7.27-3.87-7.27-6.88,0-17.93,7.27-24.17,24.55-2.95,7.66-3.92,13.94-3.34,18.46.5,3.92,2.22,6.67,5.07,7.46a9.36,9.36,0,0,0,2.61.35m-156.58,8c15.31,0,28-14.47,48.12-44.79-6.39-1.77-13.63-3.75-22.56-3.75-28.18,0-40.38,15.37-42.4,29.76-1.78,12.63,3.73,18.78,16.84,18.78m374.48,1.05a10.89,10.89,0,0,1-2.26-.22c1.68,2.35,5.61,3.92,8.75,3.92h.33c11.2,0,17.09-9.94,18.44-22.19a51.07,51.07,0,0,0-.2-10.8A34.06,34.06,0,0,0,551.77,335c-2.78,7.46-8,17.28-13.34,23.17,2.58,1.77,6.2,5.5,4.13,12.37-1.78,6.3-7.19,8.08-11.08,8.08m-160.92,9.79a12,12,0,0,1-12-9,68.26,68.26,0,0,1-22,13.17c-1.92,8.52-3.71,16.45-5.62,23.47,14.2-13.87,37.44-20,59-27.22,1.4-6.73,2.35-11.65,2.35-11.65-4.06,5.1-13.5,11.19-21.74,11.19m-16.84,54.4a20.32,20.32,0,0,0,5.56-.83c8.28-2.23,18.17-8.07,22.13-18.48,1.84-4.82,4.31-15.11,6.44-24.77-19.08,6.6-41.61,17-44.35,27.12-3.12,11.52,2.43,17,10.22,17m-70.48,0a20.32,20.32,0,0,0,5.56-.83c8.27-2.23,18.17-8.07,22.13-18.48,1.84-4.82,4.31-15.11,6.43-24.77-19.07,6.6-41.61,17-44.35,27.12-3.11,11.52,2.43,17,10.23,17M248.11,223.52c-13.16,0-25.81,3.76-35.63,10.59-10.85,7.55-17.79,18.56-19.54,31a5.78,5.78,0,0,0,1.4,4.66c2.29,2.64,6.37,3,8.6,3,6.3,0,10.69-2.79,11-7,.93-6.13,7.64-17.5,26.6-17.5,8,0,15.23,2.44,21.46,5-10.88,9.35-23.47,25.25-47.44,59.35-1.75-.25-3.65-.56-5.61-.88-6.86-1.11-14.63-2.36-22.67-2.36-17.21,0-29.52,3.94-41.15,13.16A56.48,56.48,0,0,0,124,359c-1.58,11.21.87,21.21,6.91,28.15,5.51,6.34,13.44,9.69,22.93,9.69,14.89,0,26.69-4.71,38.27-15.28,10.54-9.61,20.55-23.94,31.49-40.38C232.74,343.08,239,344,242.4,344c.14,0,.51,0,1,.06-5,14.48-6.4,20.05-6.58,20.76-1.49,5.39-2,9.87-1.49,13.69,1.53,12,11,20,23.6,20l1.07,0c10.18-.37,19.52-4.51,27.3-12.06a15,15,0,0,0,4,3.6,16.05,16.05,0,0,0,5.62,2.08c-19.54,6.77-38,15.09-47.46,31.62l-.13.23-.1.24A32.26,32.26,0,0,0,246.76,441c1.61,12.62,12.09,22.42,26.09,24.38a42.12,42.12,0,0,0,6.21.44c11.69,0,28.29-4.67,40.29-17.35,4,8.89,12.9,15.36,24,16.91a42.12,42.12,0,0,0,6.21.44c17.73,0,40.06-9.84,50-31.84,4.39-9.73,7.47-23,11-38.4a73,73,0,0,0,19.22-11.42c4.3,5.32,11,8.37,18.72,8.37l1.07,0a36.82,36.82,0,0,0,21.14-7.36c6.27,5.85,15.29,9,25.86,9a54.51,54.51,0,0,0,25-5.68,24,24,0,0,0,5,3,33.9,33.9,0,0,0,13.92,2.9A44.08,44.08,0,0,0,556.94,391a25.54,25.54,0,0,0,9.74,1.79c8.24,0,17.38-3.66,24.47-9.81l0,0,0,0a56.53,56.53,0,0,0,16.66-29,9.7,9.7,0,0,0-2.07-8.26c-2.37-3-6.37-5.16-9.54-5.16a5.35,5.35,0,0,0-5.36,3.77,84,84,0,0,1-9.24,18.61c-.49.65-1,1.25-1.45,1.81a36.88,36.88,0,0,0,.91-14.49c-1.26-9.89-7.09-16.22-11.77-21.31-1.24-1.35-2.41-2.62-3.44-3.89-.45-.55-.89-1-1.31-1.5-1.61-1.81-2-2.4-2-3.39.11-.83.43-1.23,1.4-2.32l.23-.26.52-.5a15.25,15.25,0,0,0,4.32-6.05c2.76-6.34,1.11-12.37-4.23-15.4l-.09-.05-.08,0a13.12,13.12,0,0,0-5.89-1.39,13.42,13.42,0,0,0-13.25,11.48c-.16.77-.34,1.53-2.08,5.68-6,14-16.87,34.1-25.4,43.65a22.11,22.11,0,0,0-5.73,14.76,20.76,20.76,0,0,1-11.44,3.54c-7.51,0-9.3-3.48-9.78-7.17a76.68,76.68,0,0,0,25.14-16.79c10-10.06,14.82-21.09,13.55-31.06-1.07-8.46-7.63-13.31-18-13.31-12.11,0-24.91,6.64-35.11,18.22-11.1,12.61-17,28.73-15.52,42.24-1.5,1.46-3.36,2.77-5.19,2.77a4.57,4.57,0,0,1-1.88-.43l-.07,0-.08,0c-.71-.33-2.95-3.53-1.42-8.91,3.82-12.69,10.53-26.72,17-40.3,1.61-3.38,3.29-6.88,4.9-10.33a6.66,6.66,0,0,0-.31-6.09,4.54,4.54,0,0,0-3.82-2.15,4.61,4.61,0,0,0-3.21,1.32c-2,1.85-9.69,4.25-15.16,4.25a10.92,10.92,0,0,1-1.61-.1,5.52,5.52,0,0,0-.81-.06,6,6,0,0,0-5.65,4.48c-9.91,23.7-16.68,42-18.17,49.11a35.12,35.12,0,0,0-1.21,8.7,59.07,59.07,0,0,1-9,6.28c5.39-22,12.28-44.83,23.92-65.54a6,6,0,0,0,0-5.82,4.48,4.48,0,0,0-3.89-2.28,4.63,4.63,0,0,0-2.95,1.08c-1.81,1.49-9.93,3.68-14.82,3.68a7.9,7.9,0,0,1-1.33-.09,5.67,5.67,0,0,0-1-.1,5.38,5.38,0,0,0-4.34,2.26,17.91,17.91,0,0,0-8.18-1.73h-.27c-18.82,0-36.71,19.93-44.66,39.61a69.09,69.09,0,0,0-4.85,23.45,61.28,61.28,0,0,1-8.09,5.48c5.39-22,12.28-44.83,23.93-65.54a6,6,0,0,0,0-5.82A4.49,4.49,0,0,0,365,300.2a4.59,4.59,0,0,0-3,1.08c-1.82,1.49-9.94,3.68-14.82,3.68a8.07,8.07,0,0,1-1.34-.09,5.56,5.56,0,0,0-1-.1,5.38,5.38,0,0,0-4.34,2.26,18,18,0,0,0-8.19-1.73h-.26c-18.82,0-36.71,19.93-44.67,39.61-.63,1.54-1.25,3.29-1.82,5.18-3,8.5-11.71,23.57-18.59,23.57a4.57,4.57,0,0,1-1.91-.43c-.37-.56-1.21-3.35.4-9,.26-.83,4.41-14.29,6.06-19.88.54-1.56,1.2-3.45,1.9-5.5l0-.09.6-1.67a77.48,77.48,0,0,0,19.06-13.54c4.71-4.46,4.72-11.78,2.63-17.07-1.54-3.89-4-6.12-6.88-6.12a5.16,5.16,0,0,0-2.06.42l5.61-15c5.84-15.59,11.72-23.07,17.25-29.4,2-2.36,7.86-7.91,11.16-10.89l.1-.09c1.18-1,4.81-3.92,5.48-8.72.17-1.19.68-4.82-1.61-7.45a7.55,7.55,0,0,0-6-2.43c-2.89,0-5.36,1.18-7.75,2.32-3,1.42-6.36,3-11.25,3-3.26,0-7.42-1.17-12.69-2.65-9.06-2.55-21.48-6-39.09-6Zm17,54.12q2-2.37,4.06-4.57l-.42,1,0,0,0,.05c-2,5.32-12.91,35.09-16,43.55a43.08,43.08,0,0,1-6.77.33c-1.49,0-4.95-.27-8.85-.75,2.38-3.49,4.7-7,7-10.45,4.61-7,9.38-14.23,14.56-21.1,2.41-3.1,4.53-5.76,6.48-8.12Zm230.87,66.67a100.9,100.9,0,0,1,5.18-9.65c5.59-9.12,10.05-12.52,12.28-12.71.53,6.81-8.18,15.82-17.46,22.36ZM384.06,365.54a5.48,5.48,0,0,1-1.48-.19h-.06c-1.54-.42-2-3-2.17-4.11-.52-4.09.58-10,3.11-16.51v0l0,0c5.76-16,15.57-21.91,20.4-21.91a.88.88,0,0,1,.54.13,2.49,2.49,0,0,1-.32,1.51l-.05.1,0,.11c-5.75,15.11-11.4,34.27-11.45,34.46l0,.05v.06c-1.34,5.06-6.13,6.4-8.48,6.4Zm-70.48,0a5.43,5.43,0,0,1-1.48-.19H312c-1.54-.42-2-3-2.17-4.11-.53-4.1.58-10,3.1-16.51l0,0v0c5.77-16,15.58-21.91,20.41-21.91a.81.81,0,0,1,.53.13,2.32,2.32,0,0,1-.32,1.51l0,.1,0,.11c-5.76,15.11-11.4,34.27-11.45,34.46l0,.05v.06c-1.34,5.06-6.13,6.4-8.48,6.4Zm-156.58,8c-5.4,0-9.13-1.15-11.1-3.4s-2.49-5.82-1.78-10.83a28,28,0,0,1,10-17.74c6.87-5.69,16.45-8.57,28.46-8.57a65.54,65.54,0,0,1,16.12,2.17c-19.32,28.57-30.1,38.37-41.68,38.37ZM543.93,357.8a82.26,82.26,0,0,0,7.76-12.69,40.9,40.9,0,0,1,.89,4.75,47.27,47.27,0,0,1,.18,9.91c-.52,4.6-2.39,14.09-9.15,17.4a15.35,15.35,0,0,0,2.79-5.49c1.58-5.28.67-10.15-2.47-13.88ZM340,395.6a73.82,73.82,0,0,0,17.24-9.84,15.3,15.3,0,0,0,4.52,4.31,16.2,16.2,0,0,0,5.62,2.08c-10.63,3.69-21,7.85-29.7,13.54q1.15-4.89,2.32-10.09Zm13.73,43.23c-1.85,0-4.36-.4-5.81-2.3s-1.7-5.37-.55-9.61c1.62-6,15.08-14.36,35-21.92a161.42,161.42,0,0,1-4.65,17.1c-4.26,11.16-15.95,15.1-19.44,16h-.06a16.18,16.18,0,0,1-4.46.68Zm-70.48,0c-1.85,0-4.36-.4-5.82-2.3s-1.69-5.37-.54-9.61c1.61-6,15.08-14.36,35-21.92a157.59,157.59,0,0,1-4.66,17.1c-4.25,11.16-15.95,15.1-19.43,16h-.06a16.18,16.18,0,0,1-4.46.68Z" transform="translate(-123.56 -119.73)" fill="#142a50"/></svg>