<svg id="Layer_1" data-name="Layer 1" xmlns="http://www.w3.org/2000/svg" viewBox="0 0 571 571"><path d="M126.52,263.55c2.81-4,14.52,12.18,20.35,12.22,3.36,0-4.79-8.37-8.09-19.17-2.42-7.92,1.18-21.68-1.07-24.59s-5.67,15.92-8.92,20.59-16.86-6.91-20.49-17.21c-3.16-8.95-5-20.54-14-25.6-17.47-9.78-21.9-32.54-20.77-49.93,1.15-17.61-8.33-36.75-18.88-48.19C45.36,101.61,44.54,97.42,50.07,86c10.56-21.8,22.17-45.43,12-69.77-.62-1.52-.7-6.82-.51-8.54A2.21,2.21,0,0,1,63.92,5.5C124,7.93,194.19,11.71,256.58,14.23c0,6.15-3,112.08-4.48,160.64-.29,9.7,2.35,16.21,9.72,22.79,75.9,67.73,155.94,143.72,230.76,212.64,5.72,5.27,9.35,14.84,12.92,20.54,6.89,11,14.58,15.9,18.88,27.17-4,11.59-15,22.92-13.71,33.69.82,6.89-5.07,15.69-5.17,22.4-.11,7.16,1.09,12.86,4.57,19,7.1,12.48,6.47,16.47-7.64,18.31-35,4.59-85.51,9.62-120.52,14.06-8.63,1.1-1.3-14.9-17-21.89-6.47-30-16.08-40.5-41.91-49.78-10.93-11.59-21.08-16-36.8-19.42-2.46-.54-10.12-2.81-11.24-4.76-8.74-15.26-19-14.22-33.63-14.53-.89,0-1.77-.07-2.65-.14-23.61-1.8-28.74-5.36-29-28.72-6.29-16.57-13.25-38.1-24.51-43.4-11.34-17.56-19.27-25.14-31.94-41.89-4.52-6-6.31-12.3,2.78-17.58,1.93-1.12,5.57-9.07,3.52-13.59-2.18-4.82-9.19-6.59-14.29-9.19-6.13-3.13-17.86-5.8-14.89-18.39,1.24-5.21-9.16-10.92-3.82-18.62Z"/></svg>