<?xml version="1.0" encoding="UTF-8"?><svg id="Layer_1" xmlns="http://www.w3.org/2000/svg" viewBox="0 0 40 40"><defs></defs><g id="g890"><path id="path13" class="cls-1" d="M9.3,38.17c-4.92,0-8.9-3.99-8.89-8.91,0-4.92,3.99-8.9,8.91-8.89,4.91,0,8.89,3.99,8.89,8.9,0,4.92-3.99,8.9-8.91,8.9Z"/><path id="path25" class="cls-1" d="M30.69,38.17c-4.92,0-8.9-3.99-8.89-8.91,0-4.92,3.99-8.9,8.91-8.89,4.91,0,8.89,3.99,8.89,8.9,0,4.92-3.99,8.9-8.91,8.9Z"/><path id="path31" class="cls-1" d="M20,19.63c-4.92,0-8.9-3.98-8.9-8.9,0-4.92,3.98-8.9,8.9-8.9s8.9,3.98,8.9,8.9c0,4.91-3.97,8.89-8.88,8.9,0,0-.01,0-.02,0Z"/></g></svg>
