<?xml version="1.0" encoding="UTF-8"?><svg id="Layer_1" xmlns="http://www.w3.org/2000/svg" viewBox="0 0 512 512"><path d="M78.55,255.45c0-36.45-27.18-67.24-63.47-71.64-12.1,46.98-12.1,96.31,0,143.28,36.29-4.4,63.47-35.04,63.47-71.64Z"/><path d="M120.49,232.83c-12.57,0-22.78,10.05-22.78,22.62s10.05,22.78,22.62,22.78,22.78-10.05,22.78-22.62v-.16c.16-12.41-10.05-22.62-22.62-22.62Z"/><path d="M433.45,255.45c0,36.45,27.18,67.24,63.47,71.64,12.1-46.98,12.1-96.31,0-143.28-36.29,4.56-63.47,35.19-63.47,71.64Z"/><path d="M391.35,232.83c-12.57-.16-22.78,9.9-22.94,22.47-.16,12.57,9.9,22.78,22.47,22.94,12.57,.16,22.78-9.9,22.94-22.47v-.31c0-12.41-10.05-22.47-22.47-22.62Z"/><path d="M255.45,433.45c-36.45,0-67.24,27.18-71.64,63.47,46.98,12.1,96.31,12.1,143.28,0-4.4-36.29-35.19-63.47-71.64-63.47Z"/><path d="M255.45,368.88c-12.57,0-22.78,10.05-22.78,22.62s10.05,22.78,22.62,22.78,22.78-10.05,22.78-22.62v-.16c0-12.41-10.05-22.62-22.62-22.62Z"/><path d="M255.45,78.55c36.45,0,67.24-27.18,71.64-63.47-46.98-12.1-96.31-12.1-143.28,0,4.4,36.29,35.19,63.47,71.64,63.47Z"/><path d="M255.45,97.87c-12.57,0-22.62,10.21-22.62,22.62s10.21,22.62,22.62,22.62,22.62-10.21,22.62-22.62h0c0-12.41-10.05-22.62-22.62-22.62Z"/><path d="M381.14,381.14c-25.77,25.77-28.28,66.61-5.81,95.37,41.79-24.67,76.67-59.54,101.34-101.34-28.75-22.15-69.76-19.64-95.52,5.97Z"/><path d="M335.42,335.42c-8.8,8.8-8.8,23.25,0,32.05s23.25,8.8,32.05,0,8.8-23.25,0-32.05h0c-8.8-8.8-23.25-8.8-32.05,0Z"/><path d="M130.23,130.23c25.77-25.77,28.28-66.61,5.97-95.37-41.79,24.67-76.67,59.54-101.34,101.34,28.59,22.31,69.6,19.8,95.37-5.97Z"/><path d="M143.9,143.9c-8.8,8.8-8.8,23.25,0,32.05,8.8,8.8,23.25,8.8,32.05,0s8.8-23.25,0-32.05h0c-8.8-8.8-23.25-8.8-32.05,0Z"/><path d="M380.98,129.92c25.77,25.77,66.77,28.28,95.37,5.97-24.67-41.79-59.54-76.67-101.34-101.34-22.31,28.75-19.8,69.6,5.97,95.37Z"/><path d="M367.31,175.8c8.8-8.8,8.96-23.25,0-32.05-8.8-8.8-23.25-8.96-32.05,0-8.8,8.8-8.96,23.25,0,32.05h0c8.8,8.8,23.25,8.8,32.05,0Z"/><path d="M130.08,380.98c-25.77-25.77-66.61-28.28-95.37-5.97,24.67,41.79,59.39,76.67,101.18,101.34,22.31-28.75,19.95-69.6-5.81-95.37Z"/><path d="M143.75,335.1c-8.8,8.8-8.8,23.25,0,32.05s23.25,8.8,32.05,0,8.8-23.25,0-32.05h0c-8.8-8.8-23.1-8.8-32.05,0Z"/></svg>