<?xml version="1.0" encoding="UTF-8"?><svg id="Layer_1" xmlns="http://www.w3.org/2000/svg" viewBox="0 0 512 512"><path d="M87.61,477.81c49.1-1.25,61.82-14.64,61.82-64.98V98.02c0-50.28-12.72-63.65-61.82-65.04l-1.95-16.22,102.91,1.29,162.73-2.05,42.84,.76,2.66,97.33-26.84,2.03c-4.63-60.93-16.02-67.64-111.5-67.64h-14.83l-6.69,.58V230.3c12.62,0,22.86,.71,28.92,.71,10.28,.74,20.58,1.16,30.89,1.24,52.49,0,64.6-11.28,65.15-61.12h22.9c-2.03,39.9-2.03,60.55-2.03,80.63,0,16.15,0,38.81,.67,68.94h-21.55c-2.64-48.07-13.43-57.51-63.8-58.11l-36.34-.76-25.5,1.36v140.3c0,57.06,3.33,59.69,59.77,59.69,74.66,0,96.86-16.78,103.47-80.69l26.87,1.43-15.45,111.36-51.66,.72-163.22-1.32-110.39,.6,1.96-17.46" style="fill-rule:evenodd;"/></svg>