<?xml version="1.0" encoding="UTF-8"?><svg id="Layer_1" xmlns="http://www.w3.org/2000/svg" viewBox="0 0 512 512"><path d="M442.82,73.2c0-53.76-51.07-67.2-91.39-67.2V14.06c24.19,0,43.01,8.06,43.01,26.88-.73,15.7-14.05,27.84-29.75,27.11-.84-.04-1.68-.12-2.51-.23-30.38-3.25-60.21-10.48-88.71-21.5-30.24-11.4-61.89-18.63-94.08-21.5-48.51-1.93-89.41,35.83-91.34,84.34-.02,.56-.04,1.12-.05,1.68-.35,26.24,15.77,49.88,40.32,59.14l2.69-5.38c-10.3-4.9-16.65-15.49-16.13-26.88,2.32-18.5,19.11-31.69,37.63-29.57,34.06,3.74,67.49,11.87,99.46,24.19,32.63,9.38,65.86,16.57,99.46,21.5v83.33l-40.32,34.94v2.69l40.32,34.94v115.59c-20.42,11.63-43.73,17.22-67.2,16.13-39.62,2.08-78.09-13.7-104.83-43.01l110.21-53.76V156.53l-134.4,59.14c15.04-32.35,39.37-59.48,69.89-77.95l-2.69-5.38c-86.55,21.01-148.92,96.52-153.22,185.48,.29,103.8,84.36,187.88,188.16,188.16,96.57,1.41,175.99-75.74,177.39-172.3,.01-.81,.02-1.61,.02-2.42h-5.38c-14.15,34.32-38.56,63.42-69.89,83.33v-110.21l43.01-34.94v-2.69l-40.32-34.94v-80.64c42.38,2.11,78.44-30.52,80.56-72.9,.08-1.68,.11-3.37,.09-5.06ZM208.95,368.89l-32.26,16.13c-21.25-29.66-31.69-65.72-29.57-102.15-.15-19.11,2.57-38.14,8.06-56.45l56.45-24.19-2.69,166.66Z"/></svg>