<?xml version="1.0" encoding="UTF-8"?><svg id="Layer_1" xmlns="http://www.w3.org/2000/svg" viewBox="0 0 512 512"><path d="M214.66,397.15l52.8-14.36c15.75-4.28,27.67-20.15,27.67-36.94V146.23l-80.59-12.62,.12,263.55Z"/><path d="M295.14,107.78V6L124.81,42.01c-16.44,3.47-28.83,19.34-28.83,36.94V429.46l80.59-21.89V89.14l118.57,18.64Z"/><path d="M386.15,122.03l-91.01-14.36v38.44l82.79,12.97V461.54l-163.27-25.71v-38.91l-37.98,10.31v29.53c0,17.72,13.08,33.7,29.76,36.24l209.59,33V158.39c-.12-17.72-13.2-33.7-29.87-36.36Z"/></svg>