<?xml version="1.0" encoding="UTF-8"?><svg id="Layer_1" xmlns="http://www.w3.org/2000/svg" viewBox="0 0 512 512"><path d="M256,6C117.93,6,6,117.93,6,256s111.93,250,250,250,250-111.93,250-250S394.07,6,256,6Zm0,448.98c-109.89,0-198.98-89.09-198.98-198.98S146.11,57.02,256,57.02s198.98,89.09,198.98,198.98-89.09,198.98-198.98,198.98Z"/><path d="M313.82,134.83v162.09c-.06,31.92-25.9,57.77-57.82,57.82-31.92-.05-57.77-25.9-57.82-57.82v-10.31h90.35v-63.78h-90.35v-25.51h90.35v-62.5H134.4v162.09c.02,67.17,54.43,121.57,121.6,121.6,67.17-.03,121.57-54.43,121.6-121.6h0V134.83h-63.78Z"/></svg>