<?xml version="1.0" encoding="UTF-8"?><svg id="Layer_1" xmlns="http://www.w3.org/2000/svg" viewBox="0 0 512 512"><path d="M404.16,287.59c-3.25-7.69-7.08-15.06-11.44-22.09V137.33c-.03-36.41-14.22-70.64-39.96-96.39C327.01,15.19,292.77,1,256.36,1s-70.69,14.18-96.45,39.94c-25.77,25.76-39.95,60-39.95,96.41v18.61h54.61v-18.61c0-45.07,36.69-81.75,81.8-81.75s81.71,36.68,81.75,81.75v74.55c-6.25-3.71-12.75-7.01-19.51-9.87-19.84-8.39-40.9-12.65-62.6-12.65s-42.76,4.26-62.6,12.65c-19.15,8.1-36.35,19.69-51.11,34.45-14.76,14.76-26.35,31.95-34.45,51.11-8.39,19.84-12.65,40.9-12.65,62.6s4.26,42.76,12.65,62.6c8.1,19.15,19.69,36.35,34.45,51.11,14.76,14.76,31.95,26.35,51.11,34.45,19.84,8.39,40.9,12.65,62.6,12.65s42.76-4.26,62.6-12.65c19.15-8.1,36.35-19.69,51.11-34.45s26.35-31.95,34.45-51.11c8.39-19.84,12.65-40.9,12.65-62.6s-4.26-42.76-12.65-62.6Zm-148.16,168.79c-58.56,0-106.19-47.64-106.19-106.19s47.64-106.19,106.19-106.19,106.19,47.64,106.19,106.19-47.64,106.19-106.19,106.19Z"/><circle cx="256.52" cy="350.72" r="45.04"/></svg>